<?xml version="1.0" encoding="UTF-8" standalone="no"?>
<svg width="512px" height="512px" viewBox="0 0 512 512" version="1.1" xmlns="http://www.w3.org/2000/svg" xmlns:xlink="http://www.w3.org/1999/xlink">
    <!-- Generator: Sketch 39.1 (31720) - http://www.bohemiancoding.com/sketch -->
    <title>ouluwebdev</title>
    <desc>Created with Sketch.</desc>
    <defs></defs>
    <g id="Page-1" stroke="none" stroke-width="1" fill="none" fill-rule="evenodd">
        <g id="logo" transform="translate(44.000000, 10.000000)">
            <g id="UniversalJS" stroke-width="13.8820276" stroke="#2E2E2C" fill="#F3DF49">
                <g id="svg2">
                    <g id="layer1" transform="translate(0.000000, 0.120084)">
                        <g id="g4309" transform="translate(0.220480, 0.522118)">
                            <polygon id="path4140" points="423.577032 367.195663 211.925805 489.594203 0.274584207 367.195651 0.274585427 122.39856 211.925817 1.15594569e-05 423.577032 122.39856"></polygon>
                        </g>
                    </g>
                </g>
            </g>
            <g id="Oulu.vaakuna" transform="translate(46.000000, 65.000000)">
                <polygon id="path1899" points="329.998067 -2.84217094e-14 327.682566 225.445161 3.57015638 225.445161 0 -2.84217094e-14 330 -2.84217094e-14"></polygon>
                <path d="M69.9501247,157.721203 L69.9501247,95.7528081 C69.9501247,95.7528081 69.9501247,86.258094 81.990423,81.7353066 L78.0363986,71.1920604 L85.8309238,71.1920604 L85.8347069,40.4645161 L109.451372,40.4645161 L102.420865,46.9157431 L108.637408,53.4722145 L89.8084058,53.4722145 L89.8084058,71.16819 L97.311929,71.16819 L92.8319125,81.7427402 C105.26614,86.2647427 105.455727,95.7602416 105.455727,95.7602416 L105.455727,157.729032 L69.9501247,157.729032 L69.9501247,157.721203 L69.9501247,157.721203 Z" id="path1927" stroke="#000000" stroke-width="3"></path>
                <path d="M82.2942643,124.696774 L98.7531172,124.696774 L98.7531172,109.568715 C98.7531172,109.568715 96.7794935,104.068063 90.3677695,104.05163 C84.5669254,104.040284 82.2942643,109.568715 82.2942643,109.568715 L82.2942643,124.696774" id="path1929" fill="#0099FF"></path>
                <path d="M98.6115877,109.244252 C98.6115877,109.244252 96.851413,105.159453 91.1991593,105.179408 C85.8841028,105.194667 84.3997427,108.880344 84.3997427,108.880344 L84.4206276,124.696774 L82.2942643,124.696774 L82.2942643,109.569035 C82.2942643,109.569035 84.1311724,103.993764 90.3508304,104.052067 C97.0773513,104.118194 98.7531172,109.569035 98.7531172,109.569035 L98.6081811,109.248949" id="path1931"></path>
                <path d="M121.799294,157.725516 L121.799294,95.7546557 C121.799294,95.7546557 121.799294,86.2596244 133.83882,81.7366859 L129.885175,71.1930875 L137.678952,71.1930875 L137.682352,40.4645161 L161.296758,40.4645161 L154.266926,46.9163498 L160.482872,53.4726483 L141.655677,53.4726483 L141.655677,71.1692163 L149.15848,71.1692163 L144.675487,81.7405974 C157.108522,86.262751 157.297708,95.7585672 157.297708,95.7585672 L157.297708,157.729032 L121.795511,157.729032 L121.799294,157.725516 L121.799294,157.725516 Z" id="path1903" stroke="#000000" stroke-width="3"></path>
                <path d="M133.316708,124.696774 L149.775561,124.696774 L149.775561,109.56882 C149.775561,109.56882 147.802311,104.067676 141.390415,104.051632 C135.589003,104.039889 133.316708,109.56882 133.316708,109.56882 L133.316708,124.696774" id="path1905" fill="#0099FF"></path>
                <path d="M149.63019,109.247873 C149.63019,109.247873 147.86997,105.162997 142.217571,105.182952 C136.902377,105.198211 135.417979,108.880046 135.417979,108.880046 L135.438864,124.696774 L133.316708,124.696774 L133.316708,109.569139 C133.316708,109.569139 135.153664,103.993763 141.373482,104.052067 C148.100176,104.117806 149.775561,109.569139 149.775561,109.569139 L149.631045,109.249047" id="path1907"></path>
                <path d="M172.817955,157.725114 L172.817955,95.7542631 C172.817955,95.7542631 172.817955,86.2592258 184.858634,81.736294 L180.904234,71.1926896 L188.699134,71.1926896 L188.702535,40.4645161 L212.319202,40.4645161 L205.288696,46.9159583 L211.505238,53.4726484 L192.676239,53.4726484 L192.676239,71.168825 L200.179761,71.168825 L195.700122,81.7402055 C208.133971,86.2623589 208.323552,95.7581746 208.323552,95.7581746 L208.323552,157.729032 L172.817955,157.729032 L172.817955,157.725114 L172.817955,157.725114 Z" id="path1911" stroke="#000000" stroke-width="3"></path>
                <path d="M184.339152,124.696774 L200.798005,124.696774 L200.798005,109.568715 C200.798005,109.568715 198.824806,104.068063 192.41265,104.05163 C186.611813,104.040284 184.339152,109.568715 184.339152,109.568715 L184.339152,124.696774" id="path1913" fill="#0099FF"></path>
                <path d="M200.656475,109.248164 C200.656475,109.248164 198.896301,105.163365 193.244047,105.18332 C187.928991,105.198579 186.444631,108.880344 186.444631,108.880344 L186.465515,124.696774 L184.339152,124.696774 L184.339152,109.569035 C184.339152,109.569035 186.17606,103.993764 192.395718,104.052067 C199.122239,104.118194 200.798005,109.569035 200.798005,109.569035 L200.653069,109.249338" id="path1915"></path>
                <path d="M223.840399,157.725121 L223.840399,95.7528122 C223.840399,95.7528122 223.840399,86.2580912 235.879925,81.7353102 L231.925904,71.192057 L239.723458,71.192057 L239.72724,40.4645161 L263.341646,40.4645161 L256.311813,46.9157434 L262.52776,53.472215 L243.700564,53.472215 L243.700564,71.1681931 L251.203368,71.1681931 L246.723781,81.7392215 C259.156816,86.260835 259.346378,95.7563343 259.346378,95.7563343 L259.346378,157.729032 L223.843805,157.729032 L223.840399,157.725121 L223.840399,157.725121 Z" id="path1919" stroke="#000000" stroke-width="3"></path>
                <path d="M234.538653,124.696774 L250.997506,124.696774 L250.997506,109.56882 C250.997506,109.56882 249.024307,104.067676 242.612151,104.051632 C236.811314,104.039889 234.538653,109.56882 234.538653,109.56882 L234.538653,124.696774" id="path1921" fill="#0099FF"></path>
                <path d="M250.855973,109.247873 C250.855973,109.247873 249.096177,105.162997 243.443778,105.182952 C238.12816,105.198211 236.644186,108.880046 236.644186,108.880046 L236.665071,124.696774 L234.538653,124.696774 L234.538653,109.569139 C234.538653,109.569139 236.375609,103.993763 242.595427,104.052067 C249.322121,104.117806 250.997506,109.569139 250.997506,109.569139 L250.85299,109.249047" id="path1923"></path>
                <polygon id="path1937" stroke="#000000" stroke-width="3" fill="#F3DF49" points="51.0309321 224.619355 51.0309321 137.083871 75.6880026 137.083871 75.6880026 154.675478 102.659961 154.675478 102.659961 137.083871 126.584368 137.083871 126.584368 154.675478 152.927064 154.675478 152.927064 137.083871 179.165593 137.083871 179.165593 154.675478 204.941526 154.675478 204.941526 137.083871 229.328138 137.083871 229.328138 154.675478 255.566667 154.675478 255.566667 137.083871 281.446384 137.083871 281.446384 224.619355 51.0224439 224.619355"></polygon>
                <path d="M101.221945,223.793548 L127.55611,223.793548 L127.55611,185.194052 C127.55611,185.194052 127.070492,170.941935 114.138051,170.941935 C102.110025,170.941935 101.221945,185.194052 101.221945,185.194052 L101.221945,223.793548" id="path1939" fill="#0099FF"></path>
                <path d="M115.116256,172.027629 C106.376985,172.06998 103.674886,183.30034 103.674886,183.30034 L103.709145,223.793548 L101.221945,223.793548 L101.221945,185.063627 C101.221945,185.063627 101.948758,170.941935 114.46497,170.941935 C124.384925,170.941935 125.910224,177.453523 125.910224,177.453523 C125.910224,177.453523 123.665412,172.027629 115.115087,172.027629" id="path1941"></path>
                <path d="M203.266833,223.793548 L229.600998,223.793548 L229.600998,185.194052 C229.600998,185.194052 229.11538,170.941935 216.183323,170.941935 C204.154919,170.941935 203.266833,185.194052 203.266833,185.194052 L203.266833,223.793548" id="path1943" fill="#0099FF"></path>
                <path d="M217.161146,172.027629 C208.421871,172.06998 205.71978,183.30034 205.71978,183.30034 L205.754039,223.793548 L203.266833,223.793548 L203.266833,185.063627 C203.266833,185.063627 203.994039,170.941935 216.509854,170.941935 C225.588297,170.941935 227.955112,177.270007 227.955112,177.270007 C227.955112,177.270007 225.246399,172.027629 217.159978,172.027629" id="path1945"></path>
                <path d="M325.885287,225.445161 C325.885287,313.014521 254.325733,384 165.009423,384 C75.6938838,384 3.29177057,313.015294 3.29177057,225.445161 L325.885287,225.445161 L325.885287,225.445161 Z" id="path1949"></path>
                <path d="M130.84788,262.052333 C130.84788,262.052333 159.308972,236.814201 160.373454,237.007557 C161.437554,237.200152 173.609784,251.554452 178.530909,256.421999 C179.307826,257.191235 170.325973,264.258065 170.325973,264.258065 L130.848642,262.052333" id="path1953" fill="#FF0000"></path>
                <path d="M213.142936,271.681578 L223.192198,265.093784 C223.192198,265.093784 226.512374,262.746261 229.746567,262.611302 C233.576326,262.452618 237.374134,266.222153 231.508805,268.889085 C228.546761,270.2338 223.356669,274.167742 223.356669,274.167742 L213.142145,271.685667" id="path1955" fill="#FF0000"></path>
                <path d="M194.215621,304.886152 L203.745196,316.283871 C203.745196,316.283871 220.364034,304.642701 229.600998,300.713699 L224.820599,295.63871 L194.214464,304.882034" id="path1957" fill="#FF0000"></path>
                <path d="M157.435579,311.031937 C157.435579,311.031937 187.75148,306.643736 222.581374,296.077508 C236.164184,291.955812 246.462685,294.312146 251.079897,294.899341 C253.305505,294.576004 254.095385,292.668356 255.150229,290.838622 C257.603449,286.581791 256.921781,280.80803 255.284639,276.983317 C254.514783,275.18106 254.02568,273.019713 252.640017,273.110801 C236.488458,274.171907 230.276468,275.014686 224.68105,273.739034 C152.502189,257.294016 109.168454,263.93014 109.168454,263.93014 C109.168454,263.93014 96.7028757,264.727756 85.5609625,269.583458 C85.5609625,269.583458 54.8171923,273.197002 45.3971492,279.84404 C43.7646242,280.995479 43.4026115,284.522447 51.088072,282.5685 C56.9534543,282.47139 61.1158347,286.294968 62.7106181,288.052055 C63.183545,288.571503 63.429635,288.909518 63.429635,288.909518 C58.8705836,286.813286 52.6820853,295.116158 48.0448516,289.782414 C46.5243965,288.032859 45.6960029,290.964344 47.6874598,292.842637 C53.3945577,298.225313 57.7036689,295.650284 61.3546095,297.630579 C65.5866936,299.92631 72.684466,300.780765 86.5060487,304.11953 C101.352434,307.702583 131.048679,312.599685 157.433657,311.026289 L157.435579,311.031937 L157.435579,311.031937 Z" id="path1961" stroke="#000000" stroke-width="1.55857992" fill="#0099FF"></path>
                <path d="M101.309426,296.926258 C103.190353,296.238274 126.887471,296.434399 126.57411,296.773201 C126.57411,296.773201 128.350206,303.571539 120.032342,303.879579 C113.429488,304.121852 104.507526,301.734091 102.818161,301.119173 C100.710979,300.354271 99.4322685,297.620013 101.313946,296.928184" id="path1963" fill="#FF0000"></path>
                <path d="M66.6583541,279.948212 C66.6583541,279.037849 67.3961797,278.296774 68.3044079,278.296774 C69.2116195,278.296774 69.9501247,279.037167 69.9501247,279.948212 C69.9501247,280.86198 69.2122935,281.6 68.3044079,281.6 C67.3968593,281.6 66.6583541,280.859601 66.6583541,279.948212" id="path1965" fill="#FF0000"></path>
                <path d="M143.196041,312.774073 C143.196041,312.774073 143.396365,305.91551 154.79617,310.336844 C155.873401,310.753706 159.091816,316.298512 159.176286,317.561969 C159.176286,317.561969 159.823513,321.250184 159.606297,324.018489 C159.369774,327.087062 158.375805,331.236212 157.523433,330.143939 C157.523433,330.143939 153.091432,324.252076 150.070519,320.621963 C147.467953,317.495288 143.19202,312.772127 143.19202,312.772127" id="path1967" fill="#FF0000"></path>
                <path d="M252.555028,271.488623 C252.555028,271.488623 281.104971,255.991841 291.166359,257.798074 C291.583917,257.871135 291.166359,261.318059 289.832378,266.102558 C288.229994,271.651837 287.30975,278.657991 287.428615,282.303101 C287.562431,286.363634 286.731142,291.36459 290.365355,305.180264 C290.897951,307.208785 290.762984,310.188604 290.762984,310.188604 C289.827775,311.00079 285.280216,310.010236 284.037878,309.785229 C275.978804,308.297655 250.997506,293.98884 250.997506,293.98884 C255.851051,288.984386 255.717228,282.304268 255.717228,282.304268 L252.546592,271.493288 L252.555028,271.488623 L252.555028,271.488623 Z" id="path1971" stroke="#000000" stroke-width="1.55857992" fill="#FF0000"></path>
                <path d="M86.3741333,271.690323 C86.3741333,271.690323 97.6032355,289.260363 83.117207,300.593548" id="path1973" stroke="#000000" stroke-width="1.55857992"></path>
            </g>
        </g>
    </g>
</svg>